HIERARCHY
ROOT Hips
{
 OFFSET 0.000000 0.000000 0.000000
 CHANNELS 6 Xposition Yposition Zposition Yrotation Xrotation Zrotation
 JOINT Chest
 {
  OFFSET 0.000000 9.585900 0.002600
  CHANNELS 3 Yrotation Xrotation Zrotation
  JOINT Chest2
  {
   OFFSET 0.000000 9.601200 -0.005300
   CHANNELS 3 Yrotation Xrotation Zrotation
   JOINT Chest3
   {
    OFFSET 0.000000 9.561800 0.000000
    CHANNELS 3 Yrotation Xrotation Zrotation
    JOINT Chest4
    {
     OFFSET 0.000000 9.552100 0.000000
     CHANNELS 3 Yrotation Xrotation Zrotation
     JOINT Neck
     {
      OFFSET 0.000000 14.453000 0.000000
      CHANNELS 3 Yrotation Xrotation Zrotation
      JOINT Head
      {
       OFFSET 0.000000 8.936500 -0.011300
       CHANNELS 3 Yrotation Xrotation Zrotation
       End Site
       {
        OFFSET 0.000000 17.073600 -0.006000
       }
      }
     }
     JOINT RightCollar
     {
      OFFSET -2.921100 9.558500 0.000000
      CHANNELS 3 Yrotation Xrotation Zrotation
      JOINT RightShoulder
      {
       OFFSET -13.519700 0.000000 0.000000
       CHANNELS 3 Yrotation Xrotation Zrotation
       JOINT RightElbow
       {
        OFFSET 0.000000 -29.696600 0.000000
        CHANNELS 3 Yrotation Xrotation Zrotation
        JOINT RightWrist
        {
         OFFSET 0.000000 -24.004700 0.000000
         CHANNELS 3 Yrotation Xrotation Zrotation
         End Site
         {
          OFFSET 0.000000 -17.728500 0.000000
         }
        }
       }
      }
     }
     JOINT LeftCollar
     {
      OFFSET 2.921100 9.558500 0.000000
      CHANNELS 3 Yrotation Xrotation Zrotation
      JOINT LeftShoulder
      {
       OFFSET 13.519700 0.000000 0.000000
       CHANNELS 3 Yrotation Xrotation Zrotation
       JOINT LeftElbow
       {
        OFFSET 0.000000 -29.696600 0.000000
        CHANNELS 3 Yrotation Xrotation Zrotation
        JOINT LeftWrist
        {
         OFFSET 0.000000 -24.004700 0.000000
         CHANNELS 3 Yrotation Xrotation Zrotation
         End Site
         {
          OFFSET 0.000000 -17.728500 0.000000
         }
        }
       }
      }
     }
    }
   }
  }
 }
 JOINT RightHip
 {
  OFFSET -7.771700 -0.012900 -0.001300
  CHANNELS 3 Yrotation Xrotation Zrotation
  JOINT RightKnee
  {
   OFFSET 0.000000 -40.869800 0.001200
   CHANNELS 3 Yrotation Xrotation Zrotation
   JOINT RightAnkle
   {
    OFFSET 0.000000 -39.717900 0.002100
    CHANNELS 3 Yrotation Xrotation Zrotation
    JOINT RightToe
    {
     OFFSET 0.000000 -4.965400 11.033500
     CHANNELS 3 Yrotation Xrotation Zrotation
     End Site
     {
      OFFSET 0.000000 -1.423100 5.872300
     }
    }
   }
  }
 }
 JOINT LeftHip
 {
  OFFSET 7.771700 -0.012900 -0.001300
  CHANNELS 3 Yrotation Xrotation Zrotation
  JOINT LeftKnee
  {
   OFFSET 0.000000 -40.869800 0.001200
   CHANNELS 3 Yrotation Xrotation Zrotation
   JOINT LeftAnkle
   {
    OFFSET 0.000000 -39.717900 0.002100
    CHANNELS 3 Yrotation Xrotation Zrotation
    JOINT LeftToe
    {
     OFFSET 0.000000 -4.965400 11.033500
     CHANNELS 3 Yrotation Xrotation Zrotation
     End Site
     {
      OFFSET 0.000000 -1.423100 5.872300
     }
    }
   }
  }
 }
}
MOTION
Frames: 11
Frame Time: 0.008333
-63.894943 62.049519 15.253506 173.692481 -54.051442 0.575908 5.475665 26.006882 1.668273 0.811162 4.349166 0.113977 1.280167 6.932163 0.215128 4.166782 21.298624 1.211846 -7.749393 18.213243 -3.683320 -13.083228 -1.828112 -4.226534 6.737632 5.422576 7.759643 -2.125494 -29.953168 -13.639853 -145.561019 -51.499654 169.759324 11.242789 -11.347034 -17.294122 -10.697256 2.967470 -0.480989 -10.754979 -11.765235 20.227998 -2.206492 -76.458855 -26.295056 1.367647 6.584506 3.924182 1.526088 -13.647047 -2.548263 -9.927752 65.342128 -13.239326 3.065550 -15.510363 9.374870 0.006257 -0.285872 -0.024205 -3.960697 -10.391887 4.376612 27.380673 74.451479 29.419063 1.408445 -9.202549 -6.085259 0.083573 0.276439 0.027073
-63.900370 62.051832 15.260647 173.666449 -54.081345 0.623211 5.501309 26.011887 1.646237 0.803385 4.362205 0.116449 1.283697 6.931654 0.214116 4.177638 21.296853 1.210082 -7.774907 18.340566 -3.661419 -13.152807 -1.636321 -4.152847 6.797668 5.462261 7.788893 -1.887766 -30.173125 -13.633140 -145.869559 -52.242313 169.784453 11.171685 -11.267561 -17.402936 -10.674548 3.020673 -0.489232 -10.705445 -11.801694 20.217980 -1.806651 -76.387675 -26.748390 1.209928 6.514529 3.842942 1.547046 -13.618539 -2.571345 -9.922977 65.333638 -13.241486 3.057531 -15.496279 9.382858 0.010626 -0.271736 -0.019958 -3.970536 -10.347830 4.302477 27.518659 74.407299 29.553793 1.449088 -9.215461 -6.084872 0.048585 0.295898 0.004897
-63.903795 62.054495 15.268566 173.659484 -54.111334 0.633388 5.523481 26.017948 1.648812 0.807437 4.363373 0.115019 1.289959 6.933311 0.212151 4.219912 21.292996 1.192410 -7.818927 18.485629 -3.596310 -13.205336 -1.459717 -4.077693 6.820260 5.518372 7.858841 -1.606308 -30.382959 -13.650182 -145.993463 -53.036767 169.658221 11.084131 -11.086416 -17.417571 -10.699800 3.092543 -0.460125 -10.651276 -11.828225 20.203974 -1.366014 -76.320573 -27.232443 1.060878 6.451155 3.771947 1.552257 -13.586300 -2.572771 -9.894355 65.324227 -13.218812 3.035318 -15.488594 9.388008 0.009456 -0.256416 -0.015882 -3.972499 -10.314199 4.280961 27.541834 74.390639 29.584890 1.450883 -9.210091 -6.095836 0.048738 0.290362 0.008611
-63.907297 62.056993 15.277286 173.661586 -54.137278 0.626647 5.555494 26.008327 1.656649 0.814069 4.370181 0.113253 1.282551 6.946179 0.219814 4.236308 21.304887 1.187303 -7.838316 18.537380 -3.555080 -13.229895 -1.233985 -4.001489 6.849581 5.550744 7.902509 -1.279044 -30.563131 -13.688922 -145.873598 -53.854548 169.335677 10.988822 -10.784130 -17.321542 -10.703951 3.135578 -0.440212 -10.599849 -11.845094 20.182180 -0.888069 -76.253610 -27.741843 0.926511 6.405525 3.708178 1.549455 -13.558016 -2.567744 -9.859874 65.313763 -13.184162 3.010872 -15.479989 9.387426 0.011850 -0.244309 -0.011400 -3.980938 -10.284377 4.266596 27.562574 74.369537 29.624948 1.442635 -9.200628 -6.121216 0.059643 0.284093 0.018668
-63.913502 62.058566 15.286960 173.672602 -54.153355 0.618775 5.560488 26.014040 1.654070 0.816078 4.374956 0.112850 1.291336 6.946930 0.220030 4.237927 21.319275 1.186643 -7.833762 18.642591 -3.501847 -13.239860 -1.103097 -3.917668 6.907640 5.579977 7.941266 -0.941983 -30.730951 -13.755875 -145.483306 -54.674523 168.795267 10.893375 -10.347024 -17.107309 -10.693450 3.163854 -0.426355 -10.555896 -11.857417 20.156957 -0.401200 -76.192279 -28.249764 0.808527 6.374305 3.648700 1.543191 -13.538242 -2.571038 -9.826336 65.298622 -13.150073 2.989441 -15.471589 9.386927 0.020080 -0.232359 -0.005814 -3.997331 -10.264395 4.236387 27.595927 74.343687 29.674910 1.449224 -9.200123 -6.129916 0.064210 0.292720 0.010931
-63.923808 62.060744 15.296196 173.701934 -54.170770 0.612026 5.543634 26.026698 1.632702 0.817738 4.381007 0.112780 1.296506 6.947708 0.216443 4.242086 21.338042 1.191706 -7.815870 18.732905 -3.443116 -13.230168 -0.996755 -3.833928 6.984726 5.608947 7.983032 -0.610353 -30.893514 -13.844922 -144.825532 -55.482118 168.041277 10.789520 -9.781845 -16.775600 -10.647521 3.199147 -0.416029 -10.555325 -11.884598 20.137561 0.057739 -76.139965 -28.720098 0.688974 6.351184 3.602608 1.534690 -13.504473 -2.593624 -9.806334 65.267246 -13.126486 2.977463 -15.479237 9.391316 0.029916 -0.204706 -0.001132 -4.025473 -10.250301 4.158590 27.731241 74.306921 29.835440 1.497437 -9.179683 -6.141905 0.032695 0.293501 -0.008976
-63.930737 62.063086 15.305836 173.710575 -54.186910 0.594064 5.549314 26.038071 1.641032 0.819062 4.388256 0.112865 1.303183 6.953785 0.217408 4.240006 21.356242 1.192278 -7.790232 18.788423 -3.390613 -13.198788 -0.890674 -3.750422 7.052646 5.621519 8.016893 -0.283345 -31.035030 -13.937715 -143.906770 -56.263136 167.088650 10.660111 -9.116550 -16.340094 -10.628497 3.188831 -0.401845 -10.533763 -11.880475 20.104941 0.457825 -76.093823 -29.122805 0.552641 6.339852 3.579167 1.527903 -13.483927 -2.585539 -9.773121 65.247606 -13.095203 2.974041 -15.467409 9.391855 0.025897 -0.201586 0.002337 -4.036276 -10.234231 4.143994 27.773020 74.286101 29.896513 1.495364 -9.168271 -6.155610 0.039184 0.286805 -0.007253
-63.937070 62.068241 15.313587 173.732667 -54.220753 0.556684 5.550036 26.068241 1.660039 0.820044 4.396157 0.113267 1.309395 6.981881 0.209967 4.238889 21.353811 1.202155 -7.757515 18.833238 -3.339650 -13.154153 -0.804779 -3.670976 7.130830 5.625689 8.051176 0.005661 -31.165411 -14.034176 -142.735450 -56.998043 165.954738 10.494540 -8.377038 -15.823369 -10.591927 3.179170 -0.386322 -10.541388 -11.889635 20.074477 0.790062 -76.051494 -29.451082 0.487810 6.319827 3.542936 1.508009 -13.438254 -2.569066 -9.751743 65.220142 -13.073585 2.973762 -15.462935 9.393424 0.025496 -0.192328 0.003753 -4.053407 -10.197591 4.148662 27.752624 74.266863 29.897375 1.474987 -9.148759 -6.176424 0.063135 0.273618 0.005012
-63.945081 62.071290 15.322562 173.733158 -54.236286 0.541272 5.558999 26.082245 1.673839 0.822240 4.405224 0.113089 1.311008 6.993760 0.211861 4.236682 21.349903 1.204041 -7.718074 18.886985 -3.290176 -13.102766 -0.737571 -3.593976 7.216833 5.638359 8.094605 0.246386 -31.283102 -14.134051 -141.332640 -57.660747 164.663195 10.291405 -7.587119 -15.246840 -10.540577 3.189319 -0.373475 -10.576682 -11.911333 20.049349 1.060494 -76.012642 -29.713962 0.439282 6.299542 3.517971 1.503691 -13.413677 -2.556481 -9.760782 65.183861 -13.084366 2.991494 -15.445968 9.401760 0.021581 -0.186496 0.001171 -4.056387 -10.182416 4.136252 27.804315 74.251402 29.962449 1.489038 -9.141018 -6.179100 0.045229 0.260704 0.005225
-63.956512 62.074315 15.330913 173.762616 -54.248912 0.519894 5.541259 26.095131 1.670877 0.828429 4.416990 0.111515 1.313229 7.005798 0.215029 4.230142 21.344073 1.205010 -7.669500 18.932812 -3.236206 -13.048388 -0.689151 -3.513680 7.311515 5.647338 8.145165 0.428210 -31.394751 -14.231877 -139.716364 -58.229688 163.233682 10.065361 -6.782473 -14.636841 -10.519304 3.181156 -0.366904 -10.593549 -11.920598 20.038113 1.309356 -75.981063 -29.952039 0.421079 6.265628 3.476468 1.485280 -13.394485 -2.567166 -9.749223 65.166094 -13.072305 2.996292 -15.437239 9.406245 0.041140 -0.187506 0.004463 -4.074759 -10.173831 4.093541 27.826628 74.225761 30.014932 1.513748 -9.108077 -6.199209 0.041955 0.250255 0.004237
-63.966165 62.079038 15.337727 173.794516 -54.271304 0.485105 5.533365 26.120343 1.680240 0.828405 4.419582 0.115720 1.314455 7.011878 0.216906 4.253806 21.405649 1.229535 -7.669564 18.886863 -3.213254 -12.957857 -0.633962 -3.412287 7.393453 5.603349 8.181556 0.547540 -31.501580 -14.328160 -137.917513 -58.679633 161.693466 9.841668 -6.012241 -14.024626 -10.520873 3.113932 -0.362890 -10.613952 -11.930937 20.027843 1.493358 -75.963006 -30.126369 0.371610 6.271182 3.465140 1.463320 -13.362691 -2.561469 -9.737278 65.148894 -13.061740 2.989813 -15.430685 9.410104 0.040972 -0.189783 0.007127 -4.095457 -10.151463 4.086858 27.814020 74.214763 30.010393 1.513578 -9.098150 -6.201267 0.048097 0.244078 0.007575
